<svg width="41" height="36" viewBox="0 0 41 36" fill="none" xmlns="http://www.w3.org/2000/svg">
  <path fill-rule="evenodd" clip-rule="evenodd" d="M20.1044 0.0614206C19.9083 0.113242 19.6445 0.230641 19.5182 0.322325C19.3918 0.41393 17.1558 2.62818 14.5492 5.24277C10.673 9.13084 9.79152 10.0536 9.70883 10.3093C9.42002 11.2031 9.78738 12.08 10.5916 12.4159C10.8295 12.5153 11.271 12.5369 13.0695 12.5369H15.2578L15.28 18.815L15.3022 25.0931L15.5381 25.5542C15.7997 26.0656 16.3275 26.5254 16.8234 26.674C17.2327 26.7967 23.7673 26.7967 24.1766 26.674C24.6725 26.5254 25.2003 26.0656 25.4619 25.5542L25.6978 25.093L25.7196 18.815L25.7413 12.5369H27.9301C29.7289 12.5369 30.1705 12.5153 30.4084 12.4159C31.2674 12.0571 31.6376 11.0389 31.2212 10.1807C30.9732 9.66969 21.5009 0.235252 21.1253 0.125201C20.6179 -0.0234631 20.4622 -0.0331552 20.1044 0.0614206ZM1.70209 17.2552C1.24531 17.4696 0.931963 17.7651 0.697634 18.2026C0.531931 18.5121 0.529351 18.5787 0.506997 23.206C0.487926 27.1403 0.503792 28.0197 0.605481 28.6659C1.16621 32.2295 3.83786 34.9987 7.41791 35.7271C8.06915 35.8596 8.86523 35.8682 20.5 35.8682C32.1348 35.8682 32.9309 35.8596 33.5821 35.7271C37.1621 34.9987 39.8338 32.2295 40.3945 28.6659C40.4962 28.0197 40.5121 27.1403 40.493 23.206C40.4706 18.5787 40.4681 18.5121 40.3024 18.2026C39.505 16.7141 37.5362 16.7146 36.7312 18.2036C36.5645 18.5121 36.5617 18.5818 36.5209 23.4014C36.4859 27.5458 36.4612 28.3398 36.3579 28.6382C35.8335 30.1532 34.737 31.2468 33.2795 31.7086L32.7323 31.8819H20.5H8.26768L7.72055 31.7086C6.26299 31.2468 5.16646 30.1532 4.64215 28.6382C4.53882 28.3398 4.51412 27.5458 4.4791 23.4014C4.4383 18.5818 4.43549 18.5121 4.26877 18.2036C3.7411 17.2275 2.63323 16.8182 1.70209 17.2552Z" fill="black"/>
</svg>
